# xmcd CD database file
#
# Track frame offsets:
#	150
#	18730
#	35210
#
# Disc length: 706 seconds
#
# Revision: 0
# Processed by: cddbd v1.5.1PL0 Copyright (c) Steve Scherf et al.
# Submitted via: CDex 1.51
#
DISCID=2402c003
DTITLE=鬼束ちひろ - 育つ雑草
DYEAR=2004
DGENRE=Vocal
TTITLE0=育つ雑草
TTITLE1=Rainman
TTITLE2=育つ雑草(backingtrack)
EXTD=YEAR: 2004/10/27
EXTT0=
EXTT1=
EXTT2=
PLAYORDER=
